<svg width="32" height="32" viewBox="0 0 32 32" fill="none" xmlns="http://www.w3.org/2000/svg">
<g clip-path="url(#clip0_16_7)">
<path d="M16 32C24.8366 32 32 24.8366 32 16C32 7.16344 24.8366 0 16 0C7.16344 0 0 7.16344 0 16C0 24.8366 7.16344 32 16 32Z" fill="#5DB6B8"/>
<path d="M25.75 14.25H17.75V6.25C17.75 6.1 17.65 6 17.5 6H14.5C14.35 6 14.25 6.1 14.25 6.25V14.25H6.25C6.1 14.25 6 14.35 6 14.5V17.5C6 17.65 6.1 17.75 6.25 17.75H14.25V25.75C14.25 25.9 14.35 26 14.5 26H17.5C17.65 26 17.75 25.9 17.75 25.75V17.75H25.75C25.9 17.75 26 17.65 26 17.5V14.5C26 14.35 25.9 14.25 25.75 14.25Z" fill="white"/>
</g>
<defs>
<clipPath id="clip0_16_7">
<rect width="32" height="32" fill="white"/>
</clipPath>
</defs>
</svg>
