<svg width="20" height="24" viewBox="0 0 20 24" fill="none" xmlns="http://www.w3.org/2000/svg">
<path d="M6 7.45H7.5V19.45H6V7.45Z" fill="#BBBFC5"/>
<path d="M9 7.45H10.5V19.45H9V7.45Z" fill="#BBBFC5"/>
<path d="M12 7.45H13.5V19.45H12V7.45Z" fill="#BBBFC5"/>
<path d="M0 2.95H19.5V4.45H0V2.95Z" fill="#BBBFC5"/>
<path d="M13.45 3.7H12.05V2.2C12.05 1.75 11.7 1.4 11.25 1.4H8.25C7.8 1.4 7.45 1.75 7.45 2.2V3.7H6.05V2.2C6.05 0.999997 7.05 0 8.25 0H11.25C12.45 0 13.45 0.999997 13.45 2.2V3.7Z" fill="#BBBFC5"/>
<path d="M14.25 23.95H5.25C4.05 23.95 3 22.95 2.9 21.75L1.5 3.74999L3 3.64999L4.4 21.65C4.45 22.1 4.85 22.45 5.25 22.45H14.25C14.7 22.45 15.1 22.05 15.1 21.65L16.5 3.64999L18 3.74999L16.6 21.75C16.5 23 15.45 23.95 14.25 23.95Z" fill="#BBBFC5"/>
</svg>
