<svg width="35" height="35" viewBox="0 0 35 35" fill="none" xmlns="http://www.w3.org/2000/svg">
<g clip-path="url(#clip0_15_2)">
<path d="M30.4038 19.3467C30.4038 18.8191 30.5797 18.2915 30.5797 17.5879C30.5797 16.8844 30.5797 16.3568 30.4038 15.8291L34.0973 12.8392C34.449 12.4874 34.449 12.1357 34.2732 11.7839L30.7556 5.62814C30.5797 5.45226 30.228 5.27638 29.7003 5.45226L25.3033 7.21106C24.4239 6.50754 23.3687 5.9799 22.3134 5.45226L21.6099 0.879397C21.7858 0.351759 21.2581 0 20.9064 0H13.8712C13.5194 0 12.9918 0.351759 12.9918 0.703518L12.2883 5.45226C11.233 5.80402 10.3536 6.50754 9.29834 7.21106L5.07725 5.45226C4.54961 5.27638 4.19785 5.45226 3.84602 5.80402L0.328443 11.9598C0.152564 12.1357 0.328443 12.6633 0.680202 13.0151L4.37366 15.8291C4.37366 16.3568 4.19778 16.8844 4.19778 17.5879C4.19778 18.2915 4.19778 18.8191 4.37366 19.3467L0.680202 22.3367C0.328443 22.6885 0.328443 23.0402 0.504322 23.392L4.0219 29.5478C4.19778 29.7237 4.54947 29.8996 5.07718 29.7237L9.47415 27.9649C10.3535 28.6684 11.4088 29.196 12.4641 29.7237L13.1676 34.2966C13.1676 34.6483 13.5194 35.0001 14.047 35.0001H21.0822C21.434 35.0001 21.9616 34.6482 21.9616 34.2966L22.6651 29.7237C23.7204 29.196 24.7756 28.6684 25.655 27.9649L30.052 29.7237C30.4038 29.8996 30.9314 29.7237 31.1073 29.3719L34.6249 23.2161C34.8008 22.8643 34.8008 22.3367 34.449 22.1608L30.4038 19.3467ZM17.3888 23.7437C14.0471 23.7437 11.233 20.9296 11.233 17.5879C11.233 14.2462 14.0471 11.4322 17.3888 11.4322C20.7305 11.4322 23.5445 14.2462 23.5445 17.5879C23.5445 20.9296 20.7305 23.7437 17.3888 23.7437Z" fill="#BBBFC5"/>
</g>
<defs>
<clipPath id="clip0_15_2">
<rect width="35" height="35" fill="white"/>
</clipPath>
</defs>
</svg>
