<svg width="32" height="32" viewBox="0 0 32 32" fill="none" xmlns="http://www.w3.org/2000/svg">
<g clip-path="url(#clip0_1_22)">
<path fill-rule="evenodd" clip-rule="evenodd" d="M32 0H0V32H32V0ZM22.3298 5.09645C23.9788 6.50361 25 8.58033 25 11.2299C25 14.3381 23.3184 16.4066 21.3743 17.6471C20.0679 18.4809 18.607 18.9737 17.3333 19.2326V20.6666C17.3333 21.5871 16.5871 22.3333 15.6667 22.3333C14.7462 22.3333 14 21.5871 14 20.6666V17.7853C14 16.9099 14.6773 16.1837 15.5505 16.1227C16.6561 16.0455 18.2841 15.665 19.5812 14.8372C20.8187 14.0475 21.6667 12.9293 21.6667 11.2299C21.6667 9.509 21.0379 8.37607 20.1661 7.63207C19.2518 6.85193 17.9423 6.39665 16.4847 6.33951C13.3995 6.21857 10.7749 7.80127 10.2931 9.9548C10.0921 10.8531 9.20107 11.4183 8.3028 11.2173C7.40453 11.0164 6.83927 10.1253 7.0402 9.227C8.02507 4.825 12.7338 2.85658 16.6153 3.00874C18.641 3.08815 20.7232 3.72548 22.3298 5.09645ZM13.3333 26.6667C13.3333 25.1939 14.5273 24 16 24C17.4727 24 18.6667 25.1939 18.6667 26.6667C18.6667 28.1394 17.4727 29.3333 16 29.3333C14.5273 29.3333 13.3333 28.1394 13.3333 26.6667Z" fill="#C1C44B" fill-opacity="0.7"/>
</g>
<defs>
<clipPath id="clip0_1_22">
<rect width="32" height="32" fill="white"/>
</clipPath>
</defs>
</svg>
