<svg width="32" height="32" viewBox="0 0 32 32" fill="none" xmlns="http://www.w3.org/2000/svg">
<path d="M5.21455 18.5634C6.30807 13.323 10.871 9.6 16 9.6C21.1291 9.6 25.6918 13.323 26.7854 18.5634C26.8758 18.996 27.2995 19.2734 27.732 19.1832C28.1647 19.0928 28.4421 18.6691 28.3518 18.2366C27.108 12.277 21.9095 8 16 8C10.0906 8 4.89188 12.277 3.64828 18.2366C3.55804 18.6691 3.8355 19.0928 4.26801 19.1832C4.70052 19.2734 5.1243 18.996 5.21455 18.5634Z" fill="#BBBFC5"/>
<path d="M16 12.8C12.9072 12.8 10.4 15.3072 10.4 18.4C10.4 21.4928 12.9072 24 16 24C19.0928 24 21.6 21.4928 21.6 18.4C21.6 15.3072 19.0928 12.8 16 12.8ZM12 18.4C12 16.1909 13.7909 14.4 16 14.4C18.2091 14.4 20 16.1909 20 18.4C20 20.6091 18.2091 22.4 16 22.4C13.7909 22.4 12 20.6091 12 18.4Z" fill="#BBBFC5"/>
</svg>
