<svg width="32" height="32" viewBox="0 0 32 32" fill="none" xmlns="http://www.w3.org/2000/svg">
<path d="M3.09678 0C1.3863 0 0 1.95342 0 4.36357C0 6.77372 1.3863 8.72722 3.09678 8.72722C4.80726 8.72722 6.19356 6.77372 6.19356 4.36357C6.19356 1.95342 4.80721 0 3.09678 0ZM3.09678 11.6363C1.3863 11.6363 0 13.5898 0 16C0 18.4102 1.3863 20.3636 3.09678 20.3636C4.80726 20.3636 6.19356 18.4102 6.19356 16C6.19356 13.5898 4.80721 11.6363 3.09678 11.6363ZM3.09678 23.2727C1.3863 23.2727 0 25.2261 0 27.6364C0 30.0465 1.3863 32 3.09678 32C4.80726 32 6.19356 30.0465 6.19356 27.6364C6.19356 25.2261 4.80721 23.2727 3.09678 23.2727ZM10.3226 7.27267H29.9354C31.076 7.27267 31.9999 5.97086 31.9999 4.36357C31.9999 2.75629 31.076 1.45448 29.9354 1.45448H10.3226C9.1819 1.45448 8.25803 2.75629 8.25803 4.36357C8.25803 5.97086 9.1819 7.27267 10.3226 7.27267ZM29.9354 13.0909H10.3226C9.1819 13.0909 8.25803 14.3927 8.25803 16C8.25803 17.6072 9.1819 18.9091 10.3226 18.9091H29.9354C31.076 18.9091 31.9999 17.6072 31.9999 16C32 14.3927 31.0761 13.0909 29.9354 13.0909ZM29.9354 24.7272H10.3226C9.1819 24.7272 8.25803 26.0291 8.25803 27.6363C8.25803 29.2435 9.1819 30.5453 10.3226 30.5453H29.9354C31.076 30.5453 31.9999 29.2435 31.9999 27.6363C31.9999 26.0291 31.0761 24.7272 29.9354 24.7272Z" fill="#BBBFC5"/>
</svg>
