<svg width="32" height="32" viewBox="0 0 32 32" fill="none" xmlns="http://www.w3.org/2000/svg">
<path d="M30.9609 15.8059C30.9194 15.708 26.708 6 16 6C5.29195 6 1.0805 15.708 1.039 15.8059C1.01326 15.8674 1 15.9334 1 16C1 16.0666 1.01326 16.1326 1.039 16.1941C1.0805 16.292 5.29195 26 16 26C26.708 26 30.9194 16.292 30.9609 16.1941C30.9866 16.1326 30.9999 16.0666 30.9999 16C30.9999 15.9334 30.9866 15.8674 30.9609 15.8059ZM16 25C6.7905 25 2.69135 17.3296 2.05075 16C2.69135 14.6704 6.7905 7 16 7C25.2094 7 29.3086 14.6704 29.9492 16C29.3086 17.3296 25.2094 25 16 25Z" fill="black"/>
<path d="M16 10C14.8133 10 13.6533 10.3519 12.6666 11.0112C11.6799 11.6705 10.9109 12.6075 10.4567 13.7039C10.0026 14.8003 9.88378 16.0067 10.1153 17.1705C10.3468 18.3344 10.9182 19.4035 11.7574 20.2426C12.5965 21.0818 13.6656 21.6532 14.8295 21.8847C15.9933 22.1162 17.1997 21.9974 18.2961 21.5433C19.3925 21.0892 20.3295 20.3201 20.9888 19.3334C21.6481 18.3467 22 17.1867 22 16C21.9982 14.4093 21.3655 12.8842 20.2406 11.7594C19.1158 10.6345 17.5907 10.0018 16 10ZM16 21C15.0111 21 14.0444 20.7068 13.2222 20.1573C12.3999 19.6079 11.759 18.827 11.3806 17.9134C11.0022 16.9998 10.9031 15.9945 11.0961 15.0245C11.289 14.0546 11.7652 13.1637 12.4645 12.4645C13.1637 11.7652 14.0546 11.289 15.0246 11.0961C15.9945 10.9031 16.9998 11.0022 17.9134 11.3806C18.8271 11.759 19.6079 12.3999 20.1574 13.2221C20.7068 14.0444 21 15.0111 21 16C20.9985 17.3256 20.4713 18.5965 19.5339 19.5339C18.5965 20.4713 17.3256 20.9985 16 21Z" fill="black"/>
</svg>
