<svg width="34" height="34" viewBox="0 0 34 34" fill="none" xmlns="http://www.w3.org/2000/svg">
<g clip-path="url(#clip0_103_63)">
<path d="M17 0C13.6377 0 10.351 0.997033 7.55531 2.86502C4.75968 4.733 2.58075 7.38804 1.29406 10.4944C0.00736578 13.6007 -0.329291 17.0189 0.326658 20.3165C0.982607 23.6142 2.6017 26.6433 4.97919 29.0208C7.35669 31.3983 10.3858 33.0174 13.6835 33.6733C16.9812 34.3293 20.3993 33.9926 23.5056 32.706C26.612 31.4193 29.267 29.2403 31.135 26.4447C33.003 23.6491 34 20.3623 34 17C33.9951 12.4928 32.2024 8.17167 29.0154 4.98462C25.8283 1.79757 21.5072 0.00492165 17 0ZM17 32.4062C13.9529 32.4062 10.9743 31.5027 8.44075 29.8098C5.90721 28.117 3.93255 25.7108 2.76649 22.8957C1.60043 20.0806 1.29533 16.9829 1.88978 13.9944C2.48424 11.0059 3.95154 8.26074 6.10614 6.10614C8.26075 3.95153 11.0059 2.48423 13.9944 1.88978C16.9829 1.29532 20.0806 1.60042 22.8957 2.76648C25.7109 3.93254 28.117 5.9072 29.8098 8.44075C31.5027 10.9743 32.4063 13.9529 32.4063 17C32.4013 21.0845 30.7766 25.0003 27.8884 27.8884C25.0003 30.7766 21.0845 32.4013 17 32.4062Z" fill="#6E7AB9"/>
<path d="M15.4382 9.53062C15.2872 9.38986 15.0874 9.31323 14.8809 9.31687C14.6745 9.32052 14.4775 9.40415 14.3315 9.55015C14.1855 9.69615 14.1019 9.89312 14.0982 10.0996C14.0946 10.306 14.1712 10.5058 14.312 10.6569L20.6551 17L14.312 23.3431C14.2337 23.4161 14.1709 23.5041 14.1273 23.6018C14.0838 23.6995 14.0604 23.8051 14.0585 23.9121C14.0566 24.0191 14.0763 24.1253 14.1163 24.2246C14.1564 24.3238 14.2161 24.4139 14.2917 24.4896C14.3674 24.5653 14.4576 24.6249 14.5568 24.665C14.656 24.7051 14.7623 24.7248 14.8693 24.7229C14.9763 24.721 15.0818 24.6976 15.1795 24.654C15.2773 24.6105 15.3653 24.5477 15.4382 24.4694L22.3445 17.5631C22.4937 17.4137 22.5775 17.2112 22.5775 17C22.5775 16.7888 22.4937 16.5863 22.3445 16.4369L15.4382 9.53062Z" fill="#6E7AB9"/>
</g>
<defs>
<clipPath id="clip0_103_63">
<rect width="34" height="34" fill="white"/>
</clipPath>
</defs>
</svg>
