<svg width="30" height="32" viewBox="0 0 30 32" fill="none" xmlns="http://www.w3.org/2000/svg">
<path d="M0.862396 15.488C2.2 16.0256 3.6528 16.3328 5.1824 16.3328C11.5504 16.3328 16.7088 11.1744 16.7088 4.80641C16.7088 3.36641 16.4336 1.99041 15.9472 0.723206H0.862396V15.488Z" fill="#B8B2B3"/>
<path d="M28.4848 30.7968H3.61438C3.65278 25.1136 7.49918 20.3456 12.728 18.8992L16.0496 24.6528L19.3712 18.8992C24.6 20.3456 28.4464 25.12 28.4848 30.7968Z" fill="white"/>
<path d="M24.1712 10.368V8.5952L21.6304 8.1152C21.496 7.5392 21.2656 6.9952 20.9648 6.5024L22.424 4.3648L21.1696 3.1104L19.032 4.5696C18.5392 4.2688 17.9952 4.0384 17.4128 3.904L16.9328 1.3632H15.16L14.6864 3.904C14.1104 4.0384 13.56 4.2688 13.0672 4.5696L10.9296 3.1104L9.67518 4.3648L11.1344 6.5024C10.8336 6.9952 10.6032 7.5392 10.4688 8.1152L7.92798 8.5952V10.368L10.4688 10.848C10.6032 11.424 10.8336 11.968 11.1344 12.4608L9.67518 14.5984L10.9296 15.8528L13.0672 14.3936C13.56 14.6944 14.104 14.9248 14.68 15.0656L15.16 17.6064H16.9328L17.4128 15.0656C17.9888 14.9312 18.5328 14.7008 19.0256 14.3936L21.1632 15.8528L22.4176 14.5984L20.9584 12.4608C21.2592 11.968 21.4896 11.424 21.624 10.848L24.1712 10.368ZM16.0496 12.1408C14.5776 12.1408 13.3872 10.9504 13.3872 9.4784C13.3872 8.00641 14.5776 6.816 16.0496 6.816C17.5216 6.816 18.712 8.00641 18.712 9.4784C18.712 10.9504 17.5216 12.1408 16.0496 12.1408Z" fill="#9BEAF9"/>
<path d="M19.672 18.4384C19.4672 18.3808 19.2368 18.4704 19.128 18.6624L16.2224 23.6928L13.3168 18.6624C13.208 18.4704 12.984 18.3808 12.7728 18.4384C7.24319 19.968 3.35199 25.0496 3.30719 30.7968C3.30719 30.9248 3.35839 31.0464 3.44799 31.136C3.53759 31.2256 3.65919 31.2768 3.78719 31.2768H28.6512C28.7792 31.2768 28.9008 31.2256 28.9904 31.136C29.08 31.0464 29.1312 30.9248 29.1312 30.7968C29.0928 25.0496 25.2016 19.968 19.672 18.4384ZM24.2928 30.3232V27.9168C24.2928 27.6544 24.0752 27.4368 23.8128 27.4368C23.5504 27.4368 23.3328 27.6544 23.3328 27.9168V30.3232H9.11199V27.9168C9.11199 27.6544 8.89439 27.4368 8.63199 27.4368C8.36959 27.4368 8.15199 27.6544 8.15199 27.9168V30.3232H4.27999C4.51679 25.3248 7.89599 20.9536 12.6768 19.4688L15.8064 24.896C15.8896 25.0432 16.0496 25.1392 16.2224 25.1392C16.3952 25.1392 16.5552 25.0496 16.6384 24.896L19.768 19.4688C24.5424 20.9472 27.9216 25.3248 28.1584 30.3168H24.2928V30.3232Z" fill="#505050"/>
<path d="M8.01119 10.8416L10.2512 11.264C10.3728 11.6736 10.5328 12.064 10.7376 12.4416L9.45119 14.3296C9.32319 14.5216 9.34239 14.7776 9.50879 14.9376L10.7632 16.192C10.9296 16.352 11.1856 16.3776 11.3712 16.2496L13.2592 14.9632C13.6368 15.168 14.0272 15.3344 14.4368 15.4496L14.8592 17.696C14.904 17.92 15.1024 18.0864 15.3328 18.0864H17.1056C17.336 18.0864 17.5344 17.92 17.5792 17.696L18.0016 15.4496C18.4112 15.328 18.8016 15.168 19.1792 14.9632L21.0672 16.2496C21.2592 16.3776 21.5152 16.3584 21.6752 16.192L22.9296 14.9376C23.0896 14.7776 23.1152 14.5216 22.9872 14.3296L21.7008 12.4416C21.9056 12.064 22.072 11.6736 22.1872 11.264L24.4272 10.8416C24.6512 10.7968 24.8176 10.5984 24.8176 10.368V8.5952C24.8176 8.3648 24.6512 8.1664 24.4272 8.1216L22.1872 7.6992C22.0656 7.2896 21.9056 6.8992 21.7008 6.5216L22.9872 4.64C23.1152 4.448 23.096 4.192 22.9296 4.032L21.6752 2.7776C21.5088 2.6112 21.2528 2.592 21.0608 2.72L19.1792 4.0128C18.808 3.808 18.4112 3.648 18.0016 3.5264L17.5792 1.28C17.5344 1.056 17.336 0.889603 17.1056 0.889603H15.3328C15.1024 0.889603 14.904 1.056 14.8592 1.28L14.4368 3.5264C14.0272 3.648 13.6304 3.808 13.2592 4.0128L11.3776 2.72C11.1856 2.592 10.9296 2.6112 10.7632 2.7776L9.50879 4.032C9.34879 4.192 9.32319 4.448 9.45119 4.64L10.7376 6.5216C10.5328 6.8992 10.3664 7.2896 10.2512 7.6992L8.01119 8.1216C7.78719 8.1664 7.62079 8.3648 7.62079 8.5952V10.368C7.62079 10.5984 7.78719 10.7968 8.01119 10.8416ZM8.58079 8.992L10.7248 8.5888C10.9104 8.5568 11.0576 8.4096 11.1024 8.2304C11.224 7.712 11.4288 7.2192 11.7104 6.7584C11.8128 6.5984 11.8064 6.3936 11.6976 6.2336L10.4688 4.4288L11.16 3.7376L12.9648 4.9728C13.1248 5.0816 13.3232 5.0816 13.4896 4.9856C13.944 4.704 14.4432 4.4992 14.968 4.3776C15.1536 4.3328 15.2944 4.1856 15.3264 4L15.7296 1.8496H16.7088L17.112 4C17.144 4.1856 17.2912 4.3328 17.4704 4.3776C17.9952 4.5056 18.4944 4.7104 18.9488 4.9856C19.1088 5.088 19.3136 5.0816 19.4736 4.9728L21.2784 3.7376L21.9696 4.4288L20.7408 6.2336C20.632 6.3872 20.632 6.592 20.728 6.7584C21.0096 7.2192 21.2144 7.712 21.336 8.2304C21.3808 8.416 21.528 8.5568 21.7136 8.5888L23.8576 8.992V9.9712L21.7136 10.3744C21.528 10.4064 21.3808 10.5536 21.336 10.7328C21.2144 11.2512 21.0096 11.7504 20.728 12.2048C20.6256 12.3648 20.632 12.5696 20.7408 12.7296L21.976 14.5408L21.2848 15.232L19.4736 13.9968C19.32 13.888 19.1152 13.888 18.9552 13.984C18.4944 14.2656 18.0016 14.4704 17.4832 14.592C17.2976 14.6368 17.1568 14.784 17.1248 14.9696L16.7216 17.12H15.7424L15.3392 14.9696C15.3072 14.784 15.16 14.6368 14.9808 14.592C14.4624 14.4704 13.9696 14.2656 13.5088 13.984C13.3488 13.888 13.144 13.888 12.9904 13.9968L11.1792 15.232L10.488 14.5408L11.7232 12.7296C11.832 12.576 11.832 12.3712 11.736 12.2048C11.4544 11.7504 11.2496 11.2512 11.128 10.7328C11.0832 10.5472 10.936 10.4064 10.7504 10.3744L8.60639 9.9712V8.992H8.58079Z" fill="#505050"/>
<path d="M16.2224 12.6208C17.9568 12.6208 19.3648 11.2128 19.3648 9.4784C19.3648 7.744 17.9568 6.336 16.2224 6.336C14.488 6.336 13.08 7.7504 13.08 9.4848C13.08 11.2192 14.4944 12.6208 16.2224 12.6208ZM16.2224 7.3024C17.4256 7.3024 18.4048 8.2816 18.4048 9.4848C18.4048 10.688 17.4256 11.6672 16.2224 11.6672C15.0192 11.6672 14.04 10.688 14.04 9.4848C14.04 8.2816 15.0192 7.3024 16.2224 7.3024Z" fill="#505050"/>
</svg>
