<svg width="34" height="34" viewBox="0 0 34 34" fill="none" xmlns="http://www.w3.org/2000/svg">
<g clip-path="url(#clip0_103_66)">
<rect width="34" height="34" transform="matrix(-1 0 0 -1 34.6316 34)" fill="white"/>
<path d="M17.6316 34C20.9939 34 24.2806 33.003 27.0763 31.135C29.8719 29.267 32.0508 26.612 33.3375 23.5056C34.6242 20.3993 34.9609 16.9811 34.3049 13.6835C33.649 10.3858 32.0299 7.35668 29.6524 4.97918C27.2749 2.60169 24.2458 0.982601 20.9481 0.326653C17.6504 -0.329296 14.2323 0.00735855 11.126 1.29405C8.01962 2.58074 5.36458 4.75967 3.4966 7.55531C1.62861 10.3509 0.63158 13.6377 0.63158 17C0.636501 21.5072 2.42915 25.8283 5.6162 29.0154C8.80325 32.2024 13.1244 33.9951 17.6316 34ZM17.6316 1.59375C20.6787 1.59375 23.6573 2.49731 26.1908 4.19017C28.7244 5.88303 30.699 8.28916 31.8651 11.1043C33.0312 13.9194 33.3363 17.0171 32.7418 20.0056C32.1474 22.9941 30.6801 25.7393 28.5254 27.8939C26.3708 30.0485 23.6257 31.5158 20.6372 32.1102C17.6487 32.7047 14.551 32.3996 11.7359 31.2335C8.92074 30.0675 6.51461 28.0928 4.82175 25.5593C3.12889 23.0257 2.22533 20.0471 2.22533 17C2.23025 12.9155 3.85499 8.99974 6.74315 6.11157C9.63132 3.22341 13.5471 1.59867 17.6316 1.59375Z" fill="#6E7AB9"/>
<path d="M19.1934 24.4694C19.3444 24.6101 19.5442 24.6868 19.7507 24.6831C19.9571 24.6795 20.1541 24.5959 20.3001 24.4499C20.4461 24.3038 20.5297 24.1069 20.5334 23.9004C20.537 23.694 20.4604 23.4942 20.3196 23.3431L13.9765 17L20.3196 10.6569C20.3979 10.5839 20.4607 10.4959 20.5043 10.3982C20.5478 10.3005 20.5712 10.1949 20.5731 10.0879C20.575 9.98094 20.5553 9.87465 20.5152 9.77543C20.4752 9.67621 20.4155 9.58607 20.3398 9.5104C20.2642 9.43473 20.174 9.37508 20.0748 9.335C19.9756 9.29492 19.8693 9.27524 19.7623 9.27712C19.6553 9.27901 19.5498 9.30243 19.452 9.34598C19.3543 9.38954 19.2663 9.45233 19.1934 9.53063L12.2871 16.4369C12.1379 16.5863 12.0541 16.7888 12.0541 17C12.0541 17.2112 12.1379 17.4137 12.2871 17.5631L19.1934 24.4694Z" fill="#6E7AB9"/>
</g>
<defs>
<clipPath id="clip0_103_66">
<rect width="34" height="34" fill="white" transform="matrix(-1 0 0 -1 34.6316 34)"/>
</clipPath>
</defs>
</svg>
