<svg width="24" height="32" viewBox="0 0 24 32" fill="none" xmlns="http://www.w3.org/2000/svg">
<path d="M23.5 5.8L18.2 0.5H0V31.5H23.5V5.8ZM18.5 2.2L21.8 5.5H18.5V2.2ZM1 30.5V1.5H17.5V6.5H22.5V30.5H1Z" fill="#3EBBC4"/>
<path d="M15.75 5.5H8.25V6.5H15.75V5.5Z" fill="#3EBBC4"/>
<path d="M19.5 9.5H4.5V10.5H19.5V9.5Z" fill="#3EBBC4"/>
<path d="M19.5 12H4.5V13H19.5V12Z" fill="#3EBBC4"/>
<path d="M19.5 14.5H4.5V15.5H19.5V14.5Z" fill="#3EBBC4"/>
<path d="M19.5 17H4.5V18H19.5V17Z" fill="#3EBBC4"/>
<path d="M16.75 20.5C15.1 20.5 13.75 21.85 13.75 23.5C13.75 24.5 14.25 25.375 15 25.925V29L16.75 28.3L18.5 29V26.75H17.5V27.5L16.75 27.2L16 27.5V26.4C16.25 26.45 16.5 26.5 16.75 26.5C18.4 26.5 19.75 25.15 19.75 23.5C19.75 21.85 18.4 20.5 16.75 20.5ZM16.75 25.5C15.65 25.5 14.75 24.6 14.75 23.5C14.75 22.4 15.65 21.5 16.75 21.5C17.85 21.5 18.75 22.4 18.75 23.5C18.75 24.6 17.85 25.5 16.75 25.5Z" fill="#3EBBC4"/>
</svg>
