<svg width="27" height="27" viewBox="0 0 27 27" fill="none" xmlns="http://www.w3.org/2000/svg">
<g clip-path="url(#clip0_12_13)">
<path d="M12.3333 7.99833H22.3333L22.6528 8.00993C24.8159 8.16757 26.5383 9.91292 26.6599 12.0857L26.6667 12.3316V22.3316C26.6667 24.6424 24.858 26.5307 22.5792 26.6581L22.3333 26.6649H12.3333C10.0226 26.6649 8.13433 24.8564 8.00687 22.5776L8 22.3316V12.3316C8 10.0209 9.80861 8.13267 12.0875 8.00519L12.3333 7.99833ZM10 22.3316L10.0061 22.5013L10.0305 22.7101C10.2013 23.7572 11.0691 24.5701 12.142 24.6572L12.3333 24.6649H22.3333C23.5576 24.6649 24.5616 23.7221 24.6589 22.5231L24.6667 22.3316V12.3316C24.6667 11.0429 23.622 9.99833 22.3333 9.99833H12.3333C11.1091 9.99833 10.1051 10.9412 10.0077 12.1403L10 12.3316V22.3316ZM18.3333 4C18.4408 4 18.5473 4.00391 18.6528 4.0116C20.3159 4.13271 21.7188 5.19272 22.3335 6.66405L19.9631 6.66347C19.5852 6.29467 19.0827 6.05303 18.5247 6.00773L18.3333 6H8.33333C7.10911 6 6.10508 6.94281 6.00773 8.14196L6 8.33333V18.3333L6.01444 18.5944C6.07365 19.1263 6.31161 19.6041 6.66687 19.9665L6.66675 22.3345C5.17243 21.7115 4.10176 20.2756 4.00685 18.5792L4 18.3333V8.33333C4 6.02263 5.80861 4.13433 8.08744 4.00685L8.33333 4H18.3333ZM14.3333 0C16.0664 0 17.5617 1.01735 18.2549 2.48739L18.3333 2.66667L15.9644 2.66479C15.5864 2.29524 15.0833 2.05308 14.5247 2.00773L14.3333 2H4.33333C3.10911 2 2.10508 2.94281 2.00773 4.14196L2 4.33333V14.3333C2 14.9692 2.25435 15.5457 2.66687 15.9665L2.66675 18.3345C1.17243 17.7115 0.10176 16.2756 0.00685342 14.5792L0 14.3333V4.33333C0 2.02263 1.8086 0.134333 4.08744 0.00685342L4.33333 0H14.3333Z" fill="#C3C9CF"/>
</g>
<defs>
<clipPath id="clip0_12_13">
<rect width="27" height="27" fill="white"/>
</clipPath>
</defs>
</svg>
