<svg width="28" height="28" viewBox="0 0 28 28" fill="none" xmlns="http://www.w3.org/2000/svg">
<path d="M14 28C21.732 28 28 21.732 28 14C28 6.26801 21.732 0 14 0C6.26801 0 0 6.26801 0 14C0 21.732 6.26801 28 14 28Z" fill="#F14E63"/>
<path d="M14 4C12.8954 4 12 4.89543 12 6V14C12 15.1046 12.8954 16 14 16V16C15.1046 16 16 15.1046 16 14V6C16 4.89543 15.1046 4 14 4V4ZM14 20C12.8954 20 12 20.8954 12 22V22C12 23.1046 12.8954 24 14 24V24C15.1046 24 16 23.1046 16 22V22C16 20.8954 15.1046 20 14 20V20Z" fill="white"/>
</svg>
